<svg width="25" height="25" viewBox="0 0 25 25" fill="none" xmlns="http://www.w3.org/2000/svg">
<g clip-path="url(#clip0_4033_722)">
<path d="M18.0396 0.0802083C19.3083 0.138542 20.1854 0.325 20.9958 0.639583C21.7642 0.926886 22.4599 1.37999 23.0333 1.96667C23.62 2.54009 24.0731 3.23575 24.3604 4.00417C24.675 4.81562 24.8615 5.69167 24.9198 6.96042C24.9917 8.53333 25 9.0875 25 12.5C25 15.9125 24.9917 16.4667 24.9198 18.0396C24.8615 19.3083 24.675 20.1854 24.3604 20.9969C24.073 21.7649 23.6199 22.4602 23.0333 23.0333C22.4599 23.62 21.7643 24.0731 20.9958 24.3604C20.1844 24.675 19.3083 24.8615 18.0396 24.9198C16.4667 24.9917 15.9135 25 12.5 25C9.08646 25 8.53229 24.9917 6.96042 24.9198C5.69167 24.8615 4.81458 24.675 4.00312 24.3604C3.23507 24.073 2.53977 23.6199 1.96667 23.0333C1.37999 22.4599 0.926886 21.7642 0.639583 20.9958C0.325 20.1844 0.138542 19.3083 0.0802083 18.0396C0.00833333 16.4688 0 15.9146 0 12.5C0 9.08646 0.00833333 8.53125 0.0802083 6.96042C0.138542 5.69167 0.325 4.81458 0.639583 4.00417C0.926886 3.23575 1.37999 2.54009 1.96667 1.96667C2.53979 1.38012 3.23508 0.927022 4.00312 0.639583C4.81562 0.325 5.69167 0.138542 6.96042 0.0802083C8.53125 0.00833333 9.08542 0 12.5 0C15.9135 0 16.4688 0.00833333 18.0396 0.0802083ZM12.5 2.77812C9.125 2.77812 8.60833 2.78542 7.08646 2.85521C6.12083 2.89896 5.54167 3.02187 5.00937 3.22917C4.60081 3.37732 4.23164 3.61714 3.93021 3.93021C3.61647 4.23109 3.37654 4.60043 3.22917 5.00937C3.02292 5.54062 2.89896 6.12083 2.85521 7.08646C2.78542 8.60833 2.77812 9.125 2.77812 12.5C2.77812 15.875 2.78542 16.3917 2.85521 17.9135C2.89896 18.8792 3.02187 19.4583 3.22917 19.9896C3.40625 20.4437 3.59375 20.7323 3.93021 21.0698C4.26771 21.4073 4.55625 21.5948 5.00937 21.7708C5.54062 21.9771 6.12083 22.101 7.08646 22.1448C8.60937 22.2146 9.12604 22.2219 12.5 22.2219C15.875 22.2219 16.3906 22.2146 17.9135 22.1448C18.8792 22.101 19.4583 21.9781 19.9906 21.7708C20.3992 21.6227 20.7684 21.3829 21.0698 21.0698C21.4073 20.7323 21.5948 20.4437 21.7708 19.9906C21.9771 19.4594 22.101 18.8792 22.1448 17.9135C22.2146 16.3906 22.2219 15.874 22.2219 12.5C22.2219 9.12604 22.2146 8.60937 22.1448 7.08646C22.101 6.12083 21.9781 5.54167 21.7708 5.01042C21.6235 4.60113 21.3836 4.23143 21.0698 3.93021C20.7686 3.61637 20.3989 3.37643 19.9896 3.22917C19.4583 3.02292 18.8781 2.89896 17.9125 2.85521C16.3906 2.78542 15.874 2.77812 12.499 2.77812H12.5ZM12.5 18.9812C10.7811 18.9812 9.13253 18.2984 7.91706 17.0829C6.70159 15.8675 6.01875 14.2189 6.01875 12.5C6.01875 10.7811 6.70159 9.13253 7.91706 7.91706C9.13253 6.70159 10.7811 6.01875 12.5 6.01875C14.2189 6.01875 15.8675 6.70159 17.0829 7.91706C18.2984 9.13253 18.9812 10.7811 18.9812 12.5C18.9812 14.2189 18.2984 15.8675 17.0829 17.0829C15.8675 18.2984 14.2189 18.9812 12.5 18.9812ZM12.5 16.2042C13.4824 16.2042 14.4246 15.8139 15.1192 15.1192C15.8139 14.4246 16.2042 13.4824 16.2042 12.5C16.2042 11.5176 15.8139 10.5754 15.1192 9.88076C14.4246 9.18609 13.4824 8.79583 12.5 8.79583C11.5176 8.79583 10.5754 9.18609 9.88076 9.88076C9.18609 10.5754 8.79583 11.5176 8.79583 12.5C8.79583 13.4824 9.18609 14.4246 9.88076 15.1192C10.5754 15.8139 11.5176 16.2042 12.5 16.2042ZM18.9812 7.40729C18.6128 7.40729 18.2595 7.26094 17.999 7.00044C17.7385 6.73994 17.5922 6.38663 17.5922 6.01823C17.5922 5.64983 17.7385 5.29651 17.999 5.03601C18.2595 4.77551 18.6128 4.62917 18.9812 4.62917C19.3497 4.62917 19.703 4.77551 19.9635 5.03601C20.224 5.29651 20.3703 5.64983 20.3703 6.01823C20.3703 6.38663 20.224 6.73994 19.9635 7.00044C19.703 7.26094 19.3497 7.40729 18.9812 7.40729Z" fill="url(#paint0_linear_4033_722)"/>
</g>
<defs>
<linearGradient id="paint0_linear_4033_722" x1="26.75" y1="-1.95402" x2="-6.19229" y2="10.0575" gradientUnits="userSpaceOnUse">
<stop stop-color="#2252C1"/>
<stop offset="1" stop-color="#1B74D2"/>
</linearGradient>
<clipPath id="clip0_4033_722">
<rect width="25" height="25" fill="white"/>
</clipPath>
</defs>
</svg>
